<?xml version="1.0" encoding="UTF-8"?>
<svg width="500px" height="426px" viewBox="0 0 500 426" version="1.1" xmlns="http://www.w3.org/2000/svg" xmlns:xlink="http://www.w3.org/1999/xlink">
    <!-- Generator: Sketch 61.1 (89650) - https://sketch.com -->
    <title>logo</title>
    <desc>Created with Sketch.</desc>
    <g id="logo" stroke="none" stroke-width="1" fill="none" fill-rule="evenodd">
        <path d="M220.740532,110.52592 L241,110.52592 L241,90 L220.740532,90 L220.740532,110.52592 Z M220.490168,108.411491 L199.870175,108.411491 L199.870175,158.369864 L186,180.541448 L199.870175,202.703058 L199.870175,257 L220.490168,257 L220.490168,108.411491 L220.490168,108.411491 Z" id="Fill-4" fill="#1B1C24"></path>
        <path d="M277.001211,276 L294.413811,276 L294.413811,258.334613 L277.001211,258.334613 L277.001211,276 Z M294.413811,109 L294.413811,258.194411 L315.09121,258.194411 L315.09121,203.676061 L329,181.424083 L315.09121,159.162089 L315.09121,109 L294.413811,109 Z M262.478828,248.029803 L282.804742,248.029803 L282.804742,131.73267 L262.478828,131.73267 L262.478828,248.029803 Z M232,248.029803 L252.325914,248.029803 L252.325914,153.814404 L232,153.814404 L232,248.029803 Z" id="Fill-5" fill="#EDA12D"></path>
        <path d="M398.41181,312.24972 C383.847043,312.24972 376.775017,322.973124 376.775017,334.402016 C376.775017,345.830907 383.606634,356 398.41181,356 C413.227003,356 419.878314,345.578947 419.998518,334.341545 C420.118722,322.973124 412.926492,312.24972 398.41181,312.24972 Z M398.41181,318.931691 C408.348708,318.931691 412.32547,327.135498 412.205266,334.462486 C412.075044,341.608063 408.348708,349.307951 398.41181,349.307951 C388.48493,349.307951 384.748576,341.668533 384.568269,334.522956 C384.387963,327.195969 388.48493,318.931691 398.41181,318.931691 Z M359.806162,343.62374 C357.051478,346.415454 352.914443,347.93729 349.248208,347.93729 C338.880578,347.93729 334.863748,340.590146 334.803645,333.555431 C334.743543,326.450168 339.120987,318.81075 349.248208,318.81075 C352.914443,318.81075 356.630762,320.080627 359.385446,322.81187 L364.664423,317.631579 C360.347082,313.227324 354.9479,311 349.248208,311 C334.082419,311 326.940274,322.449048 327,333.555431 C327.060478,344.591265 333.661704,354.619261 349.248208,354.619261 C355.308514,354.619261 360.888001,352.845465 365.206345,349.005599 L359.806162,343.62374 L359.806162,343.62374 Z" id="Fill-6" fill="#1B1C24"></path>
        <path d="M306,346.257927 L282.503859,346.257927 L282.503859,336.319451 L305.162207,336.319451 L305.162207,329.720303 L282.503859,329.720303 L282.503859,319.702319 L306,319.702319 L306,312 L274.675141,312 L274.675141,354 L306,354 L306,346.257927 Z M261.284437,353.393753 L248.602712,339.599148 C256.561244,338.108377 259.197445,332.522953 259.197445,326.192144 C259.197445,318.360625 253.994942,312.45717 244.089216,312.407478 C237.428814,312.188831 230.769411,312.1292 224.127982,312.1292 L224.127982,353.910554 L232.026599,353.910554 L232.026599,340.384288 L239.64562,340.384288 L251.897964,353.910554 L261.284437,353.910554 L261.284437,353.393753 Z M244.089216,319.006626 C249.082022,319.006626 251.298827,322.703739 251.298827,326.390913 C251.298827,330.088027 249.141935,333.78514 244.089216,333.78514 L232.026599,333.78514 L232.026599,319.006626 L244.089216,319.006626 Z M188.080927,353.910554 L195.968561,353.910554 L195.968561,318.917179 L209.239437,318.917179 L209.239437,312.318031 L174.809052,312.318031 L174.809052,318.917179 L188.080927,318.917179 L188.080927,353.910554 Z M151.602494,338.028869 L132.180482,312.1292 L125.789692,312.1292 L125.789692,353.910554 L133.678324,353.910554 L133.678324,325.734974 L154.588192,353.910554 L159.491126,353.910554 L159.491126,312.1292 L151.602494,312.1292 L151.602494,338.028869 Z M108.324859,346.257927 L84.8287184,346.257927 L84.8287184,336.319451 L107.486068,336.319451 L107.486068,329.720303 L84.8287184,329.720303 L84.8287184,319.702319 L108.324859,319.702319 L108.324859,312 L77,312 L77,354 L108.324859,354 L108.324859,346.257927 L108.324859,346.257927 Z" id="Fill-7" fill="#EDA12D"></path>
    </g>
</svg>